<svg xmlns="http://www.w3.org/2000/svg" display="none">

	<symbol id="svg-fb" viewBox="0 0 8 16">
		<g>	
			<path
			d="M2.17898 15.1037V8.39471H0V5.7287H2.17898V3.62811C2.17898 1.34589 3.53125 0.103699 5.50568 0.103699C6.4517 0.103699 7.2642 0.176941 7.5 0.209167V2.59393H6.13068C5.05682 2.59393 4.84943 3.12128 4.84943 3.89178V5.7287H7.27273L6.94034 8.39471H4.84943V15.1037"   />
		</g>
	</symbol>

	<symbol id="svg-inst" viewBox="0 0 16 16">
		<g>
			<path
				d="M15.3716 3.8756C15.2747 2.88596 14.8875 2.01274 14.1515 1.31418C13.3768 0.576798 12.4472 0.246921 11.4013 0.188706C9.63895 0.091678 5.45564 0.0334633 3.98374 0.266322C2.29879 0.537985 1.21423 1.52763 0.749418 3.17702C0.400804 4.45774 0.458907 10.3373 0.671951 11.5987C0.962453 13.3257 1.96954 14.4317 3.67385 14.878C4.85525 15.1885 10.6654 15.1497 11.963 14.9363C13.6867 14.6646 14.7906 13.6361 15.236 11.9286C15.6234 10.6479 15.5072 5.0593 15.3716 3.8756ZM13.9965 11.3852C13.8029 12.7047 12.9313 13.5003 11.6144 13.6556C10.4136 13.7914 5.01019 13.869 3.8869 13.5391C2.8217 13.2481 2.20195 12.4913 2.02765 11.424C1.85334 10.3956 1.81461 5.23397 2.02765 3.85619C2.22132 2.55607 3.09284 1.74108 4.40981 1.60525C5.7268 1.45001 10.5105 1.43061 11.7887 1.64405C13.0863 1.8381 13.8997 2.71131 14.0547 4.03083C14.1708 5.25332 14.2096 10.0657 13.9965 11.3852ZM8.01207 3.77857C5.88172 3.77857 4.17741 5.50559 4.17741 7.62071C4.17741 9.75519 5.90103 11.4628 8.01207 11.4628C10.1231 11.4628 11.8468 9.73584 11.8468 7.62071C11.8468 5.50559 10.1425 3.77857 8.01207 3.77857ZM7.99275 10.1045C6.61765 10.0851 5.51374 8.95957 5.5331 7.60126C5.55248 6.2236 6.67579 5.11746 8.03148 5.13691C9.40658 5.15626 10.5105 6.28175 10.4911 7.64007C10.4718 9.01783 9.34844 10.1239 7.99275 10.1045ZM12.8926 3.62334C12.8926 4.12786 12.4859 4.51595 11.9824 4.51595C11.4788 4.51595 11.0915 4.10845 11.0915 3.60392C11.0915 3.0994 11.4982 2.71131 12.0018 2.71131C12.5053 2.73071 12.8926 3.13822 12.8926 3.62334Z"  />
		</g>
	</symbol>

</svg>